<svg width="174" height="33" viewBox="0 0 174 33" fill="none" xmlns="http://www.w3.org/2000/svg">
<rect width="174" height="33" rx="16.5" fill="#8F00FF"/>
<path d="M49.7825 23.0057C49.7824 22.7991 49.7018 22.6015 49.5537 22.4553C49.5535 22.455 49.5532 22.4548 49.553 22.4545L44.1029 16.9971L49.5544 11.5403L49.5548 11.54C49.7007 11.3933 49.7826 11.1948 49.7824 10.9878C49.7823 10.7809 49.7002 10.5825 49.554 10.436L49.554 10.436L49.5534 10.4354C49.2568 10.1404 48.7487 10.1394 48.4502 10.4364L48.4497 10.437L43 15.8934L37.5484 10.4354L37.5484 10.4354L37.5472 10.4342C37.2495 10.1402 36.742 10.1418 36.4459 10.4357L36.4459 10.4357L36.4456 10.436C36.3727 10.5086 36.315 10.595 36.2758 10.6902C36.2368 10.7851 36.217 10.8868 36.2175 10.9895M49.7825 23.0057C49.7828 23.1083 49.7628 23.2099 49.7237 23.3047C49.6845 23.3996 49.627 23.4859 49.5544 23.5585C49.4818 23.6311 49.3955 23.6886 49.3006 23.7277C49.2057 23.7669 49.104 23.7869 49.0013 23.7866L49.002 23.5368V23.7866C48.795 23.7866 48.5986 23.7055 48.4522 23.5598L48.4517 23.5593L43 18.1014L37.5522 23.556C37.5518 23.5564 37.5515 23.5567 37.5512 23.557C37.407 23.7037 37.2056 23.7829 37.0019 23.7836L37.001 23.7836L36.998 23.7836C36.7939 23.7836 36.5934 23.7045 36.4482 23.5608L36.4474 23.56C36.3009 23.4137 36.2183 23.2153 36.2179 23.0082C36.2175 22.8011 36.2992 22.6023 36.4452 22.4554L36.4456 22.455L41.8967 16.9966L36.4462 11.5398C36.446 11.5396 36.4458 11.5394 36.4456 11.5392C36.2985 11.3933 36.2178 11.1965 36.2175 10.9895M49.7825 23.0057C49.7825 23.0059 49.7825 23.006 49.7825 23.0061H49.5327L49.7825 23.0054C49.7825 23.0055 49.7825 23.0056 49.7825 23.0057ZM36.2175 10.9895C36.2175 10.9892 36.2175 10.9889 36.2175 10.9886H36.4675L36.2175 10.9903C36.2175 10.99 36.2175 10.9897 36.2175 10.9895ZM36.622 10.6131L36.622 10.6131L36.622 10.6131Z" fill="white" stroke="white" stroke-width="0.5"/>
<rect x="36.6292" y="12.0488" width="1.72697" height="16.3855" transform="rotate(-45.0793 36.6292 12.0488)" fill="white"/>
</svg>
