<svg width="10" height="10" viewBox="0 0 10 10" fill="none" xmlns="http://www.w3.org/2000/svg">
<path d="M5.00001 8.3335C6.83334 8.3335 8.33334 6.8335 8.33334 5.00016C8.33334 3.16683 6.83334 1.66683 5.00001 1.66683C3.16668 1.66683 1.66668 3.16683 1.66668 5.00016C1.66668 6.8335 3.16668 8.3335 5.00001 8.3335ZM5.00001 0.833496C7.29168 0.833496 9.16668 2.7085 9.16668 5.00016C9.16668 7.29183 7.29168 9.16683 5.00001 9.16683C2.70834 9.16683 0.833344 7.29183 0.833344 5.00016C0.833344 2.7085 2.70834 0.833496 5.00001 0.833496ZM7.08334 4.79183V5.41683H4.58334V2.91683H5.20834V4.79183H7.08334Z" fill="black"/>
</svg>
