<svg width="51" height="51" viewBox="0 0 51 51" fill="none" xmlns="http://www.w3.org/2000/svg">
<path d="M51 25.5C51 39.5833 39.5833 51 25.5 51C11.4167 51 0 39.5833 0 25.5C0 11.4167 11.4167 0 25.5 0C39.5833 0 51 11.4167 51 25.5Z" fill="#4378C9"/>
<path d="M30.1614 25.5L21.1472 34.5168C20.9036 34.752 20.7093 35.0334 20.5757 35.3445C20.442 35.6556 20.3717 35.9902 20.3688 36.3288C20.3658 36.6674 20.4303 37.0032 20.5586 37.3166C20.6868 37.63 20.8761 37.9147 21.1155 38.1541C21.355 38.3935 21.6397 38.5829 21.9531 38.7111C22.2665 38.8393 22.6022 38.9038 22.9408 38.9009C23.2794 38.8979 23.614 38.8276 23.9251 38.694C24.2362 38.5603 24.5176 38.3661 24.7528 38.1225L35.5725 27.3029C36.0506 26.8247 36.3191 26.1762 36.3191 25.5C36.3191 24.8238 36.0506 24.1753 35.5725 23.6972L24.7528 12.8775C24.2719 12.413 23.6278 12.156 22.9592 12.1618C22.2906 12.1676 21.651 12.4358 21.1782 12.9086C20.7054 13.3814 20.4372 14.0209 20.4314 14.6895C20.4256 15.3581 20.6826 16.0023 21.1472 16.4832L30.1614 25.5ZM25.5 0C39.5836 0 51 11.4164 51 25.5C51 39.5836 39.5836 51 25.5 51C11.4164 51 0 39.5836 0 25.5C0 11.4164 11.4164 0 25.5 0Z" fill="white"/>
</svg>
