<svg width="260" height="260" viewBox="0 0 260 260" fill="none" xmlns="http://www.w3.org/2000/svg">
<path fill-rule="evenodd" clip-rule="evenodd" d="M122.887 8.38895C75.6113 11.3302 50.9072 38.1021 48.75 86.5149H96.4397C97.0369 69.7449 106.397 57.208 123.825 55.3596C140.932 53.5436 157.162 57.6183 162.077 69.3143C167.387 81.9486 155.468 96.6305 149.801 102.793C139.311 114.221 122.273 122.557 113.441 134.887C104.784 146.969 103.244 162.866 102.578 182.321H144.609C145.198 169.881 146.027 157.966 151.686 150.235C160.891 137.674 174.639 131.787 186.16 121.867C197.165 112.385 208.743 100.957 210.71 83.2689C216.613 30.3305 173.4 5.23645 122.887 8.38895Z" fill="white" fill-opacity="0.4"/>
<path d="M123.969 251.874C138.624 251.874 150.505 240.173 150.505 225.74C150.505 211.307 138.624 199.606 123.969 199.606C109.313 199.606 97.4324 211.307 97.4324 225.74C97.4324 240.173 109.313 251.874 123.969 251.874Z" fill="white" fill-opacity="0.4"/>
</svg>
