<?xml version="1.0" encoding="UTF-8" standalone="no"?>
<svg
   xmlns:dc="http://purl.org/dc/elements/1.1/"
   xmlns:cc="http://creativecommons.org/ns#"
   xmlns:rdf="http://www.w3.org/1999/02/22-rdf-syntax-ns#"
   xmlns:svg="http://www.w3.org/2000/svg"
   xmlns="http://www.w3.org/2000/svg"
   xmlns:sodipodi="http://sodipodi.sourceforge.net/DTD/sodipodi-0.dtd"
   xmlns:inkscape="http://www.inkscape.org/namespaces/inkscape"
   inkscape:version="1.0 (1.0+r73+1)"
   sodipodi:docname="icon_phone_model_dim.svg"
   id="svg13"
   version="1.1"
   fill="none"
   viewBox="0 0 115 115"
   height="115"
   width="115">
  <metadata
     id="metadata17">
    <rdf:RDF>
      <cc:Work
         rdf:about="">
        <dc:format>image/svg+xml</dc:format>
        <dc:type
           rdf:resource="http://purl.org/dc/dcmitype/StillImage" />
        <dc:title></dc:title>
      </cc:Work>
    </rdf:RDF>
  </metadata>
  <sodipodi:namedview
     inkscape:current-layer="svg13"
     inkscape:window-maximized="1"
     inkscape:window-y="24"
     inkscape:window-x="47"
     inkscape:cy="57.5"
     inkscape:cx="57.5"
     inkscape:zoom="6.3043478"
     inkscape:pagecheckerboard="true"
     showgrid="false"
     id="namedview15"
     inkscape:window-height="876"
     inkscape:window-width="1553"
     inkscape:pageshadow="2"
     inkscape:pageopacity="0"
     guidetolerance="10"
     gridtolerance="10"
     objecttolerance="10"
     borderopacity="1"
     bordercolor="#666666"
     pagecolor="#ffffff" />
  <g
     id="g6"
     clip-path="url(#clip0)">
    <path
       style="opacity:0.5"
       id="path2"
       fill="#ffffff"
       d="m 79.0625,7.1875 h -43.125 c -1.9062,0 -3.7344,0.75725 -5.0823,2.10517 C 29.5073,10.6406 28.75,12.4688 28.75,14.375 v 86.25 c 0,1.906 0.7573,3.734 2.1052,5.082 1.3479,1.348 3.1761,2.105 5.0823,2.105 h 43.125 c 1.9062,0 3.7344,-0.757 5.0823,-2.105 1.3479,-1.348 2.1052,-3.176 2.1052,-5.082 v -86.25 c 0,-1.9062 -0.7573,-3.7344 -2.1052,-5.08233 C 82.7969,7.94475 80.9687,7.1875 79.0625,7.1875 Z M 35.9375,0 C 32.125,0 28.4687,1.5145 25.7728,4.21034 23.077,6.90618 21.5625,10.5625 21.5625,14.375 v 86.25 c 0,3.812 1.5145,7.469 4.2103,10.165 2.6959,2.695 6.3522,4.21 10.1647,4.21 h 43.125 c 3.8125,0 7.4688,-1.515 10.1647,-4.21 2.6958,-2.696 4.2103,-6.353 4.2103,-10.165 V 14.375 C 93.4375,10.5625 91.923,6.90618 89.2272,4.21034 86.5313,1.5145 82.875,0 79.0625,0 Z"
       clip-rule="evenodd"
       fill-rule="evenodd" />
    <path
       style="opacity:0.5"
       id="path4"
       fill="#ffffff"
       d="m 57.5,100.625 c 1.9062,0 3.7344,-0.7573 5.0823,-2.1052 1.3479,-1.3479 2.1052,-3.1761 2.1052,-5.0823 0,-1.9062 -0.7573,-3.7344 -2.1052,-5.0823 C 61.2344,87.0073 59.4062,86.25 57.5,86.25 c -1.9062,0 -3.7344,0.7573 -5.0823,2.1052 -1.3479,1.3479 -2.1052,3.1761 -2.1052,5.0823 0,1.9062 0.7573,3.7344 2.1052,5.0823 1.3479,1.3479 3.1761,2.1052 5.0823,2.1052 z"
       clip-rule="evenodd"
       fill-rule="evenodd" />
  </g>
  <defs
     id="defs11">
    <clipPath
       id="clip0">
      <rect
         id="rect8"
         fill="white"
         height="115"
         width="115" />
    </clipPath>
  </defs>
</svg>
