<svg width="40" height="40" viewBox="0 0 40 40" fill="none" xmlns="http://www.w3.org/2000/svg">
<circle cx="20" cy="20" r="20" fill="#4F4F4F"/>
<path d="M11.4591 16.4794H11.3981C11.0277 16.4808 10.6728 16.6446 10.4109 16.935C10.1489 17.2254 10.0012 17.6189 10 18.0297V24.7767C10 25.6325 10.6263 26.327 11.3981 26.327H11.4591C11.8295 26.3256 12.1844 26.1618 12.4463 25.8714C12.7082 25.581 12.8559 25.1875 12.8571 24.7767V18.0297C12.8559 17.6185 12.7079 17.2246 12.4455 16.9341C12.183 16.6436 11.8275 16.4801 11.4567 16.4794H11.4591ZM13.5233 27.383C13.5233 28.1633 14.1027 28.8031 14.8088 28.8031H16.1834V32.4498C16.1834 33.3055 16.8121 34 17.5815 34H17.6402C18.011 33.9993 18.3665 33.8359 18.6289 33.5454C18.8913 33.2549 19.0393 32.861 19.0406 32.4498V28.8031H20.9594V32.4498C20.9594 33.3055 21.5928 34 22.3575 34H22.4185C22.7889 33.9986 23.1438 33.8349 23.4057 33.5444C23.6676 33.254 23.8153 32.8605 23.8166 32.4498V28.8031H25.1912C25.8949 28.8031 26.4743 28.1659 26.4743 27.3804V16.7265H13.5233V27.3804V27.383ZM23.2254 10.2656L24.3162 8.39803C24.3328 8.36968 24.3443 8.33797 24.3499 8.30472C24.3554 8.27147 24.3551 8.23733 24.3488 8.20424C24.3424 8.17115 24.3303 8.13976 24.313 8.11187C24.2958 8.08398 24.2737 8.06013 24.2482 8.04169C24.2226 8.02324 24.194 8.01056 24.164 8.00437C24.134 7.99818 24.1032 7.9986 24.0734 8.0056C24.0436 8.01261 24.0153 8.02606 23.9901 8.04519C23.965 8.06433 23.9434 8.08877 23.9268 8.11712L22.7962 10.0497C21.9084 9.64884 20.9586 9.44386 20 9.44625C18.9984 9.44625 18.053 9.66473 17.2038 10.0497L16.0755 8.11712C16.0589 8.08876 16.0374 8.06432 16.0122 8.04518C15.9871 8.02604 15.9588 8.01259 15.9289 8.00558C15.8991 7.99858 15.8683 7.99816 15.8383 8.00436C15.8083 8.01055 15.7797 8.02324 15.7542 8.04169C15.7284 8.05992 15.7061 8.08362 15.6886 8.11141C15.6712 8.13921 15.6588 8.17055 15.6523 8.20366C15.6457 8.23677 15.6451 8.27098 15.6506 8.30433C15.656 8.33768 15.6673 8.36953 15.6838 8.39803L16.7769 10.2656C14.8088 11.332 13.4811 13.3478 13.4811 15.6601C13.4811 15.8032 13.4905 15.9436 13.5022 16.0815H26.5001C26.5118 15.9436 26.5189 15.8032 26.5189 15.6601C26.5189 13.3478 25.1912 11.3346 23.2254 10.2656ZM16.9857 13.6053C16.8202 13.6053 16.6615 13.5324 16.5445 13.4027C16.4275 13.2729 16.3617 13.0969 16.3617 12.9134C16.3617 12.7299 16.4275 12.5539 16.5445 12.4242C16.6615 12.2944 16.8202 12.2215 16.9857 12.2215C17.1512 12.2215 17.3099 12.2944 17.4269 12.4242C17.5439 12.5539 17.6097 12.7299 17.6097 12.9134C17.6097 13.0969 17.5439 13.2729 17.4269 13.4027C17.3099 13.5324 17.1512 13.6053 16.9857 13.6053ZM23.0143 13.6053C22.8488 13.6056 22.69 13.5331 22.5727 13.4036C22.4555 13.2741 22.3895 13.0982 22.3892 12.9147C22.3889 12.7312 22.4543 12.5551 22.5711 12.4251C22.6879 12.2951 22.8465 12.2219 23.012 12.2215C23.1774 12.2215 23.3362 12.2944 23.4532 12.4242C23.5702 12.5539 23.6359 12.7299 23.6359 12.9134C23.6359 13.0969 23.5702 13.2729 23.4532 13.4027C23.3362 13.5324 23.1774 13.6053 23.012 13.6053H23.0143ZM28.6019 16.4794H28.5433C28.1725 16.4801 27.817 16.6436 27.5545 16.9341C27.2921 17.2246 27.1441 17.6185 27.1429 18.0297V24.7767C27.1429 25.6325 27.7762 26.327 28.5433 26.327H28.6019C28.9725 26.3263 29.3278 26.1627 29.5898 25.8721C29.8519 25.5816 29.9994 25.1877 30 24.7767V18.0297C29.9988 17.6189 29.8511 17.2254 29.5891 16.935C29.3272 16.6446 28.9723 16.4808 28.6019 16.4794Z" fill="#52D73D"/>
</svg>
