<svg width="54" height="54" viewBox="0 0 54 54" fill="none" xmlns="http://www.w3.org/2000/svg">
<path d="M42.75 18H47.25C47.8467 18 48.419 18.2371 48.841 18.659C49.2629 19.081 49.5 19.6533 49.5 20.25V47.25C49.5 47.8467 49.2629 48.419 48.841 48.841C48.419 49.2629 47.8467 49.5 47.25 49.5H29.25C28.6533 49.5 28.081 49.2629 27.659 48.841C27.2371 48.419 27 47.8467 27 47.25V45H9C8.40326 45 7.83097 44.7629 7.40901 44.341C6.98705 43.919 6.75 43.3467 6.75 42.75V6.75C6.75 6.15326 6.98705 5.58097 7.40901 5.15901C7.83097 4.73705 8.40326 4.5 9 4.5H40.5C41.0967 4.5 41.669 4.73705 42.091 5.15901C42.5129 5.58097 42.75 6.15326 42.75 6.75V18ZM38.25 18V9H11.25V40.5H27V20.25C27 19.6533 27.2371 19.081 27.659 18.659C28.081 18.2371 28.6533 18 29.25 18H38.25ZM31.5 22.5V45H45V22.5H31.5Z" fill="white"/>
</svg>
