<svg width="51" height="51" viewBox="0 0 51 51" fill="none" xmlns="http://www.w3.org/2000/svg">
<path d="M0 25.5C0 11.4167 11.4167 0 25.5 0C39.5833 0 51 11.4167 51 25.5C51 39.5833 39.5833 51 25.5 51C11.4167 51 0 39.5833 0 25.5Z" fill="white"/>
<path d="M20.8386 25.5L29.8528 16.4832C30.0964 16.248 30.2907 15.9666 30.4243 15.6555C30.558 15.3444 30.6283 15.0098 30.6312 14.6712C30.6342 14.3326 30.5697 13.9968 30.4414 13.6834C30.3132 13.37 30.1239 13.0853 29.8845 12.8459C29.645 12.6065 29.3603 12.4171 29.0469 12.2889C28.7335 12.1607 28.3978 12.0962 28.0592 12.0991C27.7206 12.1021 27.386 12.1724 27.0749 12.306C26.7638 12.4397 26.4824 12.6339 26.2472 12.8775L15.4275 23.6971C14.9494 24.1753 14.6809 24.8238 14.6809 25.5C14.6809 26.1762 14.9494 26.8247 15.4275 27.3028L26.2472 38.1225C26.7281 38.587 27.3722 38.844 28.0408 38.8382C28.7094 38.8324 29.349 38.5642 29.8218 38.0914C30.2946 37.6186 30.5628 36.9791 30.5686 36.3105C30.5744 35.6419 30.3174 34.9977 29.8528 34.5168L20.8386 25.5ZM25.5 51C11.4164 51 0 39.5836 0 25.5C0 11.4164 11.4164 0 25.5 0C39.5836 0 51 11.4164 51 25.5C51 39.5836 39.5836 51 25.5 51Z" fill="#77A5FE"/>
</svg>
