<svg width="78" height="78" viewBox="0 0 78 78" fill="none" xmlns="http://www.w3.org/2000/svg">
<path d="M63.5993 41.6719C64.0323 41.3737 64.3864 40.9748 64.631 40.5094C64.8756 40.044 65.0034 39.5261 65.0034 39.0004C65.0034 38.4746 64.8756 37.9567 64.631 37.4914C64.3864 37.026 64.0323 36.627 63.5993 36.3289L21.3493 7.07886C20.8619 6.74029 20.2912 6.54175 19.6989 6.5048C19.1067 6.46785 18.5157 6.5939 17.99 6.86928C17.4644 7.14465 17.0243 7.5588 16.7175 8.06674C16.4108 8.57468 16.2491 9.15697 16.25 9.75036L16.25 68.2504C16.2524 68.8424 16.4162 69.4225 16.7237 69.9284C17.0312 70.4343 17.4708 70.8468 17.9952 71.1215C18.5196 71.3962 19.109 71.5228 19.7 71.4877C20.2909 71.4525 20.8611 71.2569 21.3493 70.9219L63.5993 41.6719Z" fill="white" fill-opacity="0.25"/>
</svg>
