<svg width="35" height="35" viewBox="0 0 35 35" fill="none" xmlns="http://www.w3.org/2000/svg">
<path d="M8.78562 34.6395C8.54762 35.0567 7.87002 35.1225 7.27222 34.7795L3.53002 32.6494C2.93502 32.3099 2.64452 31.696 2.88322 31.2795L18.7991 6.0494C21.0881 2.3492 13.0871 2.6754 11.1229 3.7646C12.6083 1.1011 17.3424 0.2219 20.4126 0L21.3058 0.0581C23.0411 0.9226 25.5296 2.2197 27.1697 3.3075C28.3744 5.1996 29.6449 6.1957 31.4439 6.1908C33.7917 7.9898 30.1244 12.8975 27.8172 10.6246C27.8298 9.5018 24.572 6.5968 22.29 8.9901L8.78562 34.6395Z" fill="white"/>
</svg>
