<svg width="30" height="33" viewBox="0 0 30 33" fill="none" xmlns="http://www.w3.org/2000/svg">
<path d="M28.3333 0H1.66667C1.22464 0 0.800716 0.18299 0.488156 0.508713C0.175595 0.834437 0 1.27621 0 1.73686V6.23531C0 7.14369 0.355 8.03643 0.971667 8.67907L10 18.0876V31.2634C10.0003 31.5593 10.0731 31.8502 10.2115 32.1086C10.3499 32.367 10.5492 32.5844 10.7907 32.74C11.0322 32.8957 11.3079 32.9845 11.5915 32.9982C11.8752 33.0118 12.1575 32.9497 12.4117 32.8179L19.0783 29.3442C19.6433 29.0489 20 28.448 20 27.7897V18.0876L29.0283 8.67907C29.645 8.03643 30 7.14369 30 6.23531V1.73686C30 1.27621 29.8244 0.834437 29.5118 0.508713C29.1993 0.18299 28.7754 0 28.3333 0ZM17.155 16.1406C16.9999 16.3016 16.877 16.493 16.7931 16.7038C16.7093 16.9145 16.6663 17.1404 16.6667 17.3686V26.7163L13.3333 28.4532V17.3686C13.3337 17.1404 13.2907 16.9145 13.2069 16.7038C13.1231 16.493 13.0001 16.3016 12.845 16.1406L3.33333 6.23531V3.47371H26.6683L26.6717 6.22315L17.155 16.1406Z" fill="white"/>
</svg>
