<svg width="78" height="78" viewBox="0 0 78 78" fill="none" xmlns="http://www.w3.org/2000/svg">
<path d="M14.4007 36.3281C13.9677 36.6263 13.6136 37.0252 13.369 37.4906C13.1244 37.956 12.9966 38.4739 12.9966 38.9996C12.9966 39.5254 13.1244 40.0433 13.369 40.5086C13.6136 40.974 13.9677 41.373 14.4007 41.6711L56.6507 70.9211C57.1381 71.2597 57.7088 71.4583 58.3011 71.4952C58.8933 71.5322 59.4843 71.4061 60.01 71.1307C60.5356 70.8553 60.9757 70.4412 61.2825 69.9333C61.5892 69.4253 61.7509 68.843 61.75 68.2496L61.75 9.74964C61.7476 9.15763 61.5838 8.57749 61.2763 8.0716C60.9688 7.56572 60.5292 7.15323 60.0048 6.87849C59.4804 6.60375 58.891 6.47717 58.3 6.51235C57.7091 6.54752 57.1389 6.74313 56.6507 7.07814L14.4007 36.3281Z" fill="white" fill-opacity="0.25"/>
</svg>
