<svg width="47" height="47" viewBox="0 0 47 47" fill="none" xmlns="http://www.w3.org/2000/svg">
<path d="M34.5647 12.4354C33.1153 10.9762 31.3914 9.81822 29.4924 9.02837C27.5934 8.23851 25.5568 7.83236 23.5001 7.83333C14.8443 7.83333 7.85303 14.8442 7.85303 23.5C7.85303 32.1558 14.8443 39.1667 23.5001 39.1667C30.8047 39.1667 36.8951 34.1729 38.638 27.4167H34.5647C33.758 29.707 32.2604 31.6905 30.2786 33.0936C28.2967 34.4966 25.9283 35.2501 23.5001 35.25C17.018 35.25 11.7501 29.9821 11.7501 23.5C11.7501 17.0179 17.018 11.75 23.5001 11.75C26.7509 11.75 29.6493 13.1013 31.7643 15.2358L25.4584 21.5417H39.1668V7.83333L34.5647 12.4354Z" fill="white"/>
</svg>
