<svg width="115" height="115" viewBox="0 0 115 115" fill="none" xmlns="http://www.w3.org/2000/svg">
<g clip-path="url(#clip0)">
<path fill-rule="evenodd" clip-rule="evenodd" d="M79.0625 7.1875H35.9375C34.0313 7.1875 32.2031 7.94475 30.8552 9.29267C29.5073 10.6406 28.75 12.4688 28.75 14.375V100.625C28.75 102.531 29.5073 104.359 30.8552 105.707C32.2031 107.055 34.0313 107.812 35.9375 107.812H79.0625C80.9687 107.812 82.7969 107.055 84.1448 105.707C85.4927 104.359 86.25 102.531 86.25 100.625V14.375C86.25 12.4688 85.4927 10.6406 84.1448 9.29267C82.7969 7.94475 80.9687 7.1875 79.0625 7.1875ZM35.9375 0C32.125 0 28.4687 1.5145 25.7728 4.21034C23.077 6.90618 21.5625 10.5625 21.5625 14.375V100.625C21.5625 104.437 23.077 108.094 25.7728 110.79C28.4687 113.485 32.125 115 35.9375 115H79.0625C82.875 115 86.5313 113.485 89.2272 110.79C91.923 108.094 93.4375 104.437 93.4375 100.625V14.375C93.4375 10.5625 91.923 6.90618 89.2272 4.21034C86.5313 1.5145 82.875 0 79.0625 0L35.9375 0Z" fill="white"/>
<path fill-rule="evenodd" clip-rule="evenodd" d="M57.5 100.625C59.4062 100.625 61.2344 99.8677 62.5823 98.5198C63.9302 97.1719 64.6875 95.3437 64.6875 93.4375C64.6875 91.5313 63.9302 89.7031 62.5823 88.3552C61.2344 87.0073 59.4062 86.25 57.5 86.25C55.5938 86.25 53.7656 87.0073 52.4177 88.3552C51.0698 89.7031 50.3125 91.5313 50.3125 93.4375C50.3125 95.3437 51.0698 97.1719 52.4177 98.5198C53.7656 99.8677 55.5938 100.625 57.5 100.625Z" fill="white"/>
</g>
<defs>
<clipPath id="clip0">
<rect width="115" height="115" fill="white"/>
</clipPath>
</defs>
</svg>
