<svg width="40" height="40" viewBox="0 0 40 40" fill="none" xmlns="http://www.w3.org/2000/svg">
<circle cx="20" cy="20" r="20" fill="#4F4F4F"/>
<path d="M26.7014 20.7516C26.6719 17.7131 29.241 16.2563 29.354 16.1819C27.9123 14.1178 25.6649 13.837 24.8642 13.8058C22.9508 13.6138 21.1308 14.905 20.1606 14.905C19.1929 14.905 17.6946 13.8322 16.108 13.861C14.0227 13.8922 12.102 15.0442 11.0286 16.8707C8.86229 20.5428 10.4735 25.9838 12.5834 28.9623C13.615 30.4191 14.8455 32.0584 16.4617 31.9984C18.0164 31.9384 18.6034 31.0144 20.4848 31.0144C22.3663 31.0144 22.8919 31.9984 24.5375 31.9696C26.2126 31.9384 27.2737 30.4816 28.2979 29.0199C29.4818 27.3302 29.9705 25.691 30 25.607C29.9632 25.5902 26.7309 24.3829 26.7014 20.7516ZM23.6115 11.8329C24.4687 10.8153 25.0459 9.40645 24.8887 8C23.6533 8.048 22.1575 8.80403 21.2708 9.81686C20.4775 10.7169 19.7799 12.1521 19.969 13.5322C21.3445 13.6354 22.7519 12.8458 23.6115 11.8329Z" fill="white"/>
</svg>
