<svg width="58" height="58" viewBox="0 0 58 58" fill="none" xmlns="http://www.w3.org/2000/svg">
<path d="M46.255 31.2715C46.3516 30.5465 46.4 29.7973 46.4 28.9998C46.4 28.2265 46.3516 27.4531 46.2308 26.7281L51.1366 22.9098C51.348 22.7356 51.4925 22.4934 51.5454 22.2246C51.5982 21.9558 51.5563 21.677 51.4266 21.4356L46.7866 13.4123C46.65 13.1696 46.4319 12.9831 46.1709 12.8857C45.91 12.7884 45.623 12.7866 45.3608 12.8806L39.585 15.2006C38.3766 14.2823 37.0958 13.509 35.67 12.929L34.8 6.79064C34.7572 6.51401 34.6166 6.2619 34.4037 6.08009C34.1909 5.89828 33.9199 5.79883 33.64 5.79981H24.36C23.78 5.79981 23.3208 6.21064 23.2241 6.79064L22.3541 12.929C20.9283 13.509 19.6233 14.3065 18.4391 15.2006L12.6633 12.8806C12.1316 12.6873 11.5275 12.8806 11.2375 13.4123L6.62164 21.4356C6.33164 21.9431 6.42831 22.5715 6.91164 22.9098L11.8175 26.7281C11.6966 27.4531 11.6 28.2506 11.6 28.9998C11.6 29.749 11.6483 30.5465 11.7691 31.2715L6.86331 35.0898C6.65191 35.2641 6.50746 35.5062 6.45458 35.775C6.4017 36.0438 6.44366 36.3226 6.57331 36.564L11.2133 44.5873C11.5033 45.119 12.1075 45.2881 12.6391 45.119L18.415 42.799C19.6233 43.7173 20.9041 44.4906 22.33 45.0706L23.2 51.209C23.3208 51.789 23.78 52.1998 24.36 52.1998H33.64C34.22 52.1998 34.7033 51.789 34.7758 51.209L35.6458 45.0706C37.0716 44.4906 38.3766 43.7173 39.5608 42.799L45.3366 45.119C45.8683 45.3123 46.4725 45.119 46.7625 44.5873L51.4025 36.564C51.6925 36.0323 51.5716 35.4281 51.1125 35.0898L46.255 31.2715ZM29 37.6998C24.215 37.6998 20.3 33.7848 20.3 28.9998C20.3 24.2148 24.215 20.2998 29 20.2998C33.785 20.2998 37.7 24.2148 37.7 28.9998C37.7 33.7848 33.785 37.6998 29 37.6998Z" fill="white"/>
</svg>
