<svg width="350" height="350" viewBox="0 0 350 350" fill="none" xmlns="http://www.w3.org/2000/svg">
<circle cx="175" cy="175" r="175" fill="#3B915D"/>
<path d="M49.056 150.688H64.8C66.976 150.688 69.0667 150.901 71.072 151.328C73.12 151.712 74.9333 152.395 76.512 153.376C78.0907 154.357 79.3493 155.68 80.288 157.344C81.2267 159.008 81.696 161.12 81.696 163.68C81.696 166.965 80.7787 169.717 78.944 171.936C77.152 174.155 74.5707 175.499 71.2 175.968L83.232 196H73.504L63.008 176.8H57.12V196H49.056V150.688ZM63.392 169.888C64.544 169.888 65.696 169.845 66.848 169.76C68 169.632 69.0453 169.376 69.984 168.992C70.9653 168.565 71.7547 167.947 72.352 167.136C72.9493 166.283 73.248 165.109 73.248 163.616C73.248 162.293 72.9707 161.227 72.416 160.416C71.8613 159.605 71.136 159.008 70.24 158.624C69.344 158.197 68.3413 157.92 67.232 157.792C66.1653 157.664 65.12 157.6 64.096 157.6H57.12V169.888H63.392ZM89.3685 150.688H119.385V157.984H97.4325V169.12H118.233V176.416H97.4325V188.704H120.537V196H89.3685V150.688ZM150.702 160.416C149.848 159.179 148.696 158.283 147.246 157.728C145.838 157.131 144.344 156.832 142.766 156.832C141.827 156.832 140.91 156.939 140.014 157.152C139.16 157.365 138.371 157.707 137.646 158.176C136.963 158.645 136.408 159.264 135.982 160.032C135.555 160.757 135.342 161.632 135.342 162.656C135.342 164.192 135.875 165.365 136.942 166.176C138.008 166.987 139.331 167.691 140.91 168.288C142.488 168.885 144.216 169.461 146.094 170.016C147.971 170.571 149.699 171.339 151.278 172.32C152.856 173.301 154.179 174.603 155.246 176.224C156.312 177.845 156.846 180 156.846 182.688C156.846 185.12 156.398 187.253 155.502 189.088C154.606 190.88 153.39 192.373 151.854 193.568C150.36 194.763 148.611 195.659 146.606 196.256C144.6 196.853 142.488 197.152 140.27 197.152C137.454 197.152 134.744 196.683 132.142 195.744C129.539 194.805 127.299 193.227 125.422 191.008L131.502 185.12C132.483 186.613 133.763 187.787 135.342 188.64C136.963 189.451 138.67 189.856 140.462 189.856C141.4 189.856 142.339 189.728 143.278 189.472C144.216 189.216 145.07 188.832 145.838 188.32C146.606 187.808 147.224 187.168 147.694 186.4C148.163 185.589 148.398 184.672 148.398 183.648C148.398 181.984 147.864 180.704 146.798 179.808C145.731 178.912 144.408 178.165 142.83 177.568C141.251 176.928 139.523 176.331 137.646 175.776C135.768 175.221 134.04 174.475 132.462 173.536C130.883 172.555 129.56 171.275 128.494 169.696C127.427 168.075 126.894 165.92 126.894 163.232C126.894 160.885 127.363 158.859 128.302 157.152C129.283 155.445 130.542 154.037 132.078 152.928C133.656 151.776 135.448 150.923 137.454 150.368C139.459 149.813 141.507 149.536 143.598 149.536C145.987 149.536 148.291 149.899 150.51 150.624C152.771 151.349 154.798 152.544 156.59 154.208L150.702 160.416ZM174.524 157.984H160.636V150.688H196.476V157.984H182.588V196H174.524V157.984ZM210.775 150.688H217.751L237.271 196H228.055L223.831 185.632H204.183L200.087 196H191.062L210.775 150.688ZM221.015 178.72L214.039 160.288L206.935 178.72H221.015ZM242.306 150.688H258.05C260.226 150.688 262.317 150.901 264.322 151.328C266.37 151.712 268.183 152.395 269.762 153.376C271.341 154.357 272.599 155.68 273.538 157.344C274.477 159.008 274.946 161.12 274.946 163.68C274.946 166.965 274.029 169.717 272.194 171.936C270.402 174.155 267.821 175.499 264.45 175.968L276.482 196H266.754L256.258 176.8H250.37V196H242.306V150.688ZM256.642 169.888C257.794 169.888 258.946 169.845 260.098 169.76C261.25 169.632 262.295 169.376 263.234 168.992C264.215 168.565 265.005 167.947 265.602 167.136C266.199 166.283 266.498 165.109 266.498 163.616C266.498 162.293 266.221 161.227 265.666 160.416C265.111 159.605 264.386 159.008 263.49 158.624C262.594 158.197 261.591 157.92 260.482 157.792C259.415 157.664 258.37 157.6 257.346 157.6H250.37V169.888H256.642ZM290.774 157.984H276.886V150.688H312.726V157.984H298.838V196H290.774V157.984Z" fill="white" fill-opacity="0.8"/>
</svg>
