<svg width="350" height="350" viewBox="0 0 350 350" fill="none" xmlns="http://www.w3.org/2000/svg">
<circle cx="175" cy="175" r="175" fill="#A4332D"/>
<path d="M90.896 152.624C89.616 150.768 87.888 149.424 85.712 148.592C83.6 147.696 81.36 147.248 78.992 147.248C77.584 147.248 76.208 147.408 74.864 147.728C73.584 148.048 72.4 148.56 71.312 149.264C70.288 149.968 69.456 150.896 68.816 152.048C68.176 153.136 67.856 154.448 67.856 155.984C67.856 158.288 68.656 160.048 70.256 161.264C71.856 162.48 73.84 163.536 76.208 164.432C78.576 165.328 81.168 166.192 83.984 167.024C86.8 167.856 89.392 169.008 91.76 170.48C94.128 171.952 96.112 173.904 97.712 176.336C99.312 178.768 100.112 182 100.112 186.032C100.112 189.68 99.44 192.88 98.096 195.632C96.752 198.32 94.928 200.56 92.624 202.352C90.384 204.144 87.76 205.488 84.752 206.384C81.744 207.28 78.576 207.728 75.248 207.728C71.024 207.728 66.96 207.024 63.056 205.616C59.152 204.208 55.792 201.84 52.976 198.512L62.096 189.68C63.568 191.92 65.488 193.68 67.856 194.96C70.288 196.176 72.848 196.784 75.536 196.784C76.944 196.784 78.352 196.592 79.76 196.208C81.168 195.824 82.448 195.248 83.6 194.48C84.752 193.712 85.68 192.752 86.384 191.6C87.088 190.384 87.44 189.008 87.44 187.472C87.44 184.976 86.64 183.056 85.04 181.712C83.44 180.368 81.456 179.248 79.088 178.352C76.72 177.392 74.128 176.496 71.312 175.664C68.496 174.832 65.904 173.712 63.536 172.304C61.168 170.832 59.184 168.912 57.584 166.544C55.984 164.112 55.184 160.88 55.184 156.848C55.184 153.328 55.888 150.288 57.296 147.728C58.768 145.168 60.656 143.056 62.96 141.392C65.328 139.664 68.016 138.384 71.024 137.552C74.032 136.72 77.104 136.304 80.24 136.304C83.824 136.304 87.28 136.848 90.608 137.936C94 139.024 97.04 140.816 99.728 143.312L90.896 152.624ZM126.629 148.976H105.797V138.032H159.557V148.976H138.725V206H126.629V148.976ZM164.186 172.304C164.186 166.864 165.082 161.936 166.874 157.52C168.666 153.04 171.13 149.232 174.266 146.096C177.466 142.96 181.242 140.56 185.594 138.896C190.01 137.168 194.842 136.304 200.09 136.304C205.402 136.24 210.266 137.04 214.682 138.704C219.098 140.304 222.906 142.672 226.106 145.808C229.306 148.944 231.802 152.72 233.594 157.136C235.386 161.552 236.282 166.48 236.282 171.92C236.282 177.232 235.386 182.064 233.594 186.416C231.802 190.768 229.306 194.512 226.106 197.648C222.906 200.784 219.098 203.248 214.682 205.04C210.266 206.768 205.402 207.664 200.09 207.728C194.842 207.728 190.01 206.896 185.594 205.232C181.242 203.504 177.466 201.104 174.266 198.032C171.13 194.896 168.666 191.152 166.874 186.8C165.082 182.448 164.186 177.616 164.186 172.304ZM176.858 171.536C176.858 175.184 177.402 178.544 178.49 181.616C179.642 184.688 181.242 187.344 183.29 189.584C185.338 191.824 187.77 193.584 190.586 194.864C193.466 196.144 196.666 196.784 200.186 196.784C203.706 196.784 206.906 196.144 209.786 194.864C212.666 193.584 215.13 191.824 217.178 189.584C219.226 187.344 220.794 184.688 221.882 181.616C223.034 178.544 223.61 175.184 223.61 171.536C223.61 168.144 223.034 164.976 221.882 162.032C220.794 159.088 219.226 156.528 217.178 154.352C215.13 152.112 212.666 150.384 209.786 149.168C206.906 147.888 203.706 147.248 200.186 147.248C196.666 147.248 193.466 147.888 190.586 149.168C187.77 150.384 185.338 152.112 183.29 154.352C181.242 156.528 179.642 159.088 178.49 162.032C177.402 164.976 176.858 168.144 176.858 171.536ZM247.803 138.032H270.651C273.915 138.032 277.051 138.352 280.059 138.992C283.131 139.632 285.819 140.72 288.123 142.256C290.427 143.728 292.251 145.744 293.595 148.304C295.003 150.8 295.707 153.936 295.707 157.712C295.707 162 294.971 165.456 293.499 168.08C292.027 170.704 290.043 172.752 287.547 174.224C285.051 175.632 282.139 176.592 278.811 177.104C275.547 177.616 272.123 177.872 268.539 177.872H259.899V206H247.803V138.032ZM267.195 167.504C268.923 167.504 270.715 167.44 272.571 167.312C274.427 167.184 276.123 166.8 277.659 166.16C279.259 165.52 280.539 164.56 281.499 163.28C282.523 162 283.035 160.208 283.035 157.904C283.035 155.792 282.587 154.128 281.691 152.912C280.795 151.632 279.643 150.672 278.235 150.032C276.827 149.328 275.259 148.88 273.531 148.688C271.803 148.496 270.139 148.4 268.539 148.4H259.899V167.504H267.195Z" fill="white" fill-opacity="0.8"/>
</svg>
