<svg width="19" height="18" viewBox="0 0 19 18" fill="none" xmlns="http://www.w3.org/2000/svg">
<path d="M14.2975 6.06145H15.8413C16.046 6.06145 16.2424 6.13692 16.3871 6.27127C16.5319 6.40561 16.6132 6.58783 16.6132 6.77782V15.3742C16.6132 15.5642 16.5319 15.7464 16.3871 15.8808C16.2424 16.0151 16.046 16.0906 15.8413 16.0906H3.49095C3.28623 16.0906 3.0899 16.0151 2.94514 15.8808C2.80038 15.7464 2.71906 15.5642 2.71906 15.3742V6.77782C2.71906 6.58783 2.80038 6.40561 2.94514 6.27127C3.0899 6.13692 3.28623 6.06145 3.49095 6.06145H5.03475V5.34508C5.03475 4.20513 5.5227 3.11186 6.39125 2.30579C7.2598 1.49972 8.43782 1.04688 9.66614 1.04688C10.8945 1.04688 12.0725 1.49972 12.941 2.30579C13.8096 3.11186 14.2975 4.20513 14.2975 5.34508V6.06145ZM12.7537 6.06145V5.34508C12.7537 4.58511 12.4284 3.85627 11.8494 3.31889C11.2704 2.78151 10.485 2.47961 9.66614 2.47961C8.84726 2.47961 8.06191 2.78151 7.48288 3.31889C6.90384 3.85627 6.57854 4.58511 6.57854 5.34508V6.06145H12.7537ZM8.89424 10.3597V11.7924H10.438V10.3597H8.89424ZM5.80665 10.3597V11.7924H7.35044V10.3597H5.80665ZM11.9818 10.3597V11.7924H13.5256V10.3597H11.9818Z" fill="white" fill-opacity="0.5"/>
</svg>
