<svg width="40" height="40" viewBox="0 0 40 40" fill="none" xmlns="http://www.w3.org/2000/svg">
<path fill-rule="evenodd" clip-rule="evenodd" d="M8.63333 11.6668C8.46764 11.6668 8.33333 11.5325 8.33333 11.3668V8.6335C8.33333 8.46781 8.46764 8.3335 8.63333 8.3335H31.3667C31.5324 8.3335 31.6667 8.46781 31.6667 8.6335V11.3668C31.6667 11.5325 31.5324 11.6668 31.3667 11.6668H8.63333Z" fill="white"/>
<path fill-rule="evenodd" clip-rule="evenodd" d="M8.63333 21.6668C8.46764 21.6668 8.33333 21.5325 8.33333 21.3668V18.6335C8.33333 18.4678 8.46764 18.3335 8.63333 18.3335H31.3667C31.5324 18.3335 31.6667 18.4678 31.6667 18.6335V21.3668C31.6667 21.5325 31.5324 21.6668 31.3667 21.6668H8.63333Z" fill="white"/>
<path fill-rule="evenodd" clip-rule="evenodd" d="M8.63333 31.6668C8.46764 31.6668 8.33333 31.5325 8.33333 31.3668V28.6335C8.33333 28.4678 8.46764 28.3335 8.63333 28.3335H31.3667C31.5324 28.3335 31.6667 28.4678 31.6667 28.6335V31.3668C31.6667 31.5325 31.5324 31.6668 31.3667 31.6668H8.63333Z" fill="white"/>
</svg>
