<svg width="164" height="244" viewBox="0 0 164 244" fill="none" xmlns="http://www.w3.org/2000/svg">
<path fill-rule="evenodd" clip-rule="evenodd" d="M74.8866 0.38895C27.6113 3.3302 2.90719 30.1021 0.75 78.5149H48.4397C49.0369 61.7449 58.3969 49.208 75.825 47.3596C92.9322 45.5436 109.162 49.6183 114.077 61.3143C119.387 73.9486 107.468 88.6305 101.801 94.7933C91.3113 106.221 74.2731 114.557 65.4412 126.887C56.7841 138.969 55.2444 154.866 54.5781 174.321H96.6088C97.1978 161.881 98.0266 149.966 103.686 142.235C112.891 129.674 126.639 123.787 138.16 113.867C149.165 104.385 160.743 92.9571 162.71 75.2689C168.613 22.3305 125.4 -2.76355 74.8866 0.38895Z" fill="white" fill-opacity="0.2"/>
<path d="M75.9687 243.874C90.6242 243.874 102.505 232.173 102.505 217.74C102.505 203.307 90.6242 191.606 75.9687 191.606C61.3131 191.606 49.4324 203.307 49.4324 217.74C49.4324 232.173 61.3131 243.874 75.9687 243.874Z" fill="white" fill-opacity="0.2"/>
</svg>
