<svg width="10" height="10" viewBox="0 0 10 10" fill="none" xmlns="http://www.w3.org/2000/svg">
<path d="M8.31457 2.7792C7.65901 2.12363 6.82378 1.67719 5.91449 1.49632C5.0052 1.31545 4.0627 1.40828 3.20617 1.76307C2.34964 2.11785 1.61755 2.71867 1.10248 3.48952C0.587413 4.26038 0.312497 5.16667 0.3125 6.09377V7.81252H3.125V7.18752H0.9375V6.09377C0.9375 3.85371 2.75994 2.03127 5 2.03127C7.24006 2.03127 9.0625 3.85371 9.0625 6.09377V7.18752H6.875V7.81252H9.6875V6.09377C9.68918 5.47795 9.5687 4.86791 9.33304 4.29896C9.09737 3.73002 8.75121 3.21346 8.31457 2.7792Z" fill="black"/>
<path d="M1.5625 5.15625H2.1875V5.78125H1.5625V5.15625Z" fill="black"/>
<path d="M4.6875 2.5H5.3125V3.125H4.6875V2.5Z" fill="black"/>
<path d="M2.65625 3.28125H3.28125V3.90625H2.65625V3.28125Z" fill="black"/>
<path d="M7.8125 5.15625H8.4375V5.78125H7.8125V5.15625Z" fill="black"/>
<path d="M5.8051 6.54484L7.15666 3.72896L6.59318 3.4585L5.24195 6.27363C4.94286 6.21403 4.6323 6.26559 4.36851 6.41862C4.10471 6.57165 3.9058 6.81566 3.80907 7.10488C3.71234 7.39411 3.72443 7.70869 3.84309 7.98963C3.96174 8.27057 4.1788 8.49858 4.45357 8.63091C4.72833 8.76324 5.04193 8.79079 5.33557 8.70841C5.6292 8.62602 5.88269 8.43935 6.04852 8.1834C6.21434 7.92746 6.28111 7.61981 6.23629 7.31815C6.19148 7.01649 6.03817 6.74153 5.8051 6.54484ZM4.99998 8.12492C4.87637 8.12492 4.75553 8.08827 4.65275 8.01959C4.54997 7.95091 4.46986 7.8533 4.42256 7.7391C4.37525 7.62489 4.36287 7.49923 4.38699 7.37799C4.41111 7.25675 4.47063 7.14539 4.55804 7.05798C4.64545 6.97057 4.75681 6.91105 4.87805 6.88693C4.99929 6.86281 5.12495 6.87519 5.23916 6.9225C5.35336 6.9698 5.45097 7.04991 5.51965 7.15269C5.58833 7.25547 5.62498 7.37631 5.62498 7.49992C5.6248 7.66562 5.55889 7.82449 5.44172 7.94166C5.32455 8.05883 5.16568 8.12473 4.99998 8.12492Z" fill="black"/>
</svg>
