<svg width="24" height="24" viewBox="0 0 24 24" fill="none" xmlns="http://www.w3.org/2000/svg">
<circle cx="12" cy="12" r="11" stroke="white" stroke-width="2"/>
<path d="M17.0728 16.2036C17.0725 15.9745 16.983 15.753 16.817 15.5886L13.2314 11.9981L16.818 8.40801L16.8187 8.40731C16.9815 8.24368 17.0728 8.0222 17.0727 7.79137C17.0725 7.56055 16.9809 7.33919 16.8179 7.17578L16.8166 7.17449C16.4822 6.84182 15.9216 6.8411 15.5859 7.17519L15.5848 7.1763L12 10.7655L8.41381 7.17523L8.41382 7.17522L8.41138 7.17281C8.07591 6.84154 7.51672 6.84338 7.18319 7.17439L7.18319 7.17439L7.18256 7.17502C7.10094 7.25631 7.03633 7.35305 6.9925 7.45957C6.94888 7.56558 6.92671 7.67918 6.92726 7.7938M17.0728 16.2036C17.073 16.3181 17.0506 16.4315 17.007 16.5373C16.9632 16.6434 16.899 16.7397 16.8179 16.8208C16.7367 16.9019 16.6404 16.9662 16.5344 17.01C16.4286 17.0536 16.3152 17.076 16.2007 17.0757M17.0728 16.2036C17.0728 16.2039 17.0728 16.2041 17.0728 16.2044H16.5728L17.0728 16.203C17.0728 16.2032 17.0728 16.2034 17.0728 16.2036ZM16.2007 17.0757C15.9701 17.0755 15.7505 16.9848 15.5873 16.8224L15.5862 16.8213L12 13.231L8.41661 16.8188C8.25116 16.9866 8.02577 17.0728 7.80247 17.0736L7.8007 17.0736L7.7986 17.0736C7.57357 17.0736 7.35001 16.9869 7.1851 16.8237L7.18355 16.8221C7.02005 16.6589 6.92797 16.4375 6.92751 16.2065C6.92705 15.9754 7.01824 15.7537 7.18109 15.5898L7.18196 15.5889L10.7683 11.9978L7.18244 8.40772C7.01754 8.24384 6.92769 8.02333 6.92726 7.7938M16.2007 17.0757C16.2005 17.0757 16.2002 17.0757 16.2 17.0757L16.2014 16.5759V17.0757C16.2012 17.0757 16.2009 17.0757 16.2007 17.0757ZM6.92726 7.7938C6.92725 7.79324 6.92725 7.79269 6.92725 7.79213H7.42725L6.92727 7.79549C6.92726 7.79492 6.92726 7.79436 6.92726 7.7938ZM16.4643 15.9429L16.4643 15.9429L16.4643 15.9429ZM16.4643 15.9429L12.5247 11.9981M16.4643 15.9429L12.5247 11.9981M12.5247 11.9981L16.4643 8.05463C16.5338 7.98478 16.5727 7.89024 16.5727 7.79171C16.5726 7.69317 16.5335 7.59868 16.4639 7.52893C16.3246 7.39033 16.0793 7.38963 15.9386 7.52963L12.5247 11.9981Z" fill="white" stroke="white"/>
<rect x="7.24634" y="9.15186" width="2.48983" height="11.3404" transform="rotate(-45 7.24634 9.15186)" fill="white"/>
<rect x="14.587" y="15.9399" width="2" height="2" transform="rotate(-42.5583 14.587 15.9399)" fill="white"/>
</svg>
