<svg width="190" height="94" viewBox="0 0 190 94" fill="none" xmlns="http://www.w3.org/2000/svg">
<rect x="0.5" y="0.5" width="189" height="93" rx="46.5" fill="white" stroke="#8F00FF"/>
<circle cx="47" cy="47" r="35.5" fill="#8F00FF" stroke="#8F00FF"/>
<path d="M133.711 47.4913L150.314 30.8725C150.606 30.5782 150.771 30.1797 150.77 29.7645C150.77 29.3492 150.605 28.951 150.312 28.6571C149.725 28.073 148.691 28.07 148.098 28.66L131.5 45.2788L114.896 28.6556C114.306 28.073 113.272 28.0759 112.685 28.6585C112.539 28.8037 112.424 28.9764 112.346 29.1666C112.267 29.3568 112.228 29.5606 112.229 29.7663C112.229 30.1852 112.391 30.5775 112.685 30.8681L129.287 47.4899L112.686 64.1131C112.393 64.4079 112.229 64.8069 112.23 65.2225C112.231 65.6381 112.397 66.0364 112.691 66.33C112.975 66.6118 113.378 66.774 113.794 66.774H113.803C114.22 66.7726 114.623 66.6088 114.902 66.3242L131.5 49.7053L148.104 66.3286C148.398 66.6206 148.79 66.7829 149.206 66.7829C149.411 66.7835 149.615 66.7434 149.805 66.6649C149.996 66.5865 150.168 66.4712 150.314 66.3258C150.459 66.1804 150.574 66.0076 150.653 65.8175C150.731 65.6273 150.771 65.4236 150.771 65.2179C150.771 64.8005 150.609 64.4067 150.314 64.1161L133.711 47.4913Z" fill="#8F00FF"/>
</svg>
