<svg width="16" height="16" viewBox="0 0 16 16" fill="none" xmlns="http://www.w3.org/2000/svg">
<path d="M7.45196 13.0462C7.51312 13.135 7.59495 13.2076 7.69042 13.2578C7.78588 13.308 7.89211 13.3342 7.99996 13.3342C8.1078 13.3342 8.21403 13.308 8.3095 13.2578C8.40496 13.2076 8.4868 13.135 8.54796 13.0462L14.548 4.3795C14.6174 4.27953 14.6581 4.16245 14.6657 4.04097C14.6733 3.91948 14.6474 3.79824 14.5909 3.69043C14.5345 3.58261 14.4495 3.49233 14.3453 3.4294C14.2411 3.36647 14.1217 3.33331 14 3.3335H1.99996C1.87852 3.334 1.75952 3.36759 1.65574 3.43067C1.55197 3.49375 1.46736 3.58392 1.411 3.69149C1.35465 3.79906 1.32868 3.91996 1.3359 4.04118C1.34311 4.16241 1.38324 4.27937 1.45196 4.3795L7.45196 13.0462Z" fill="#CCCCCC"/>
</svg>
