<?xml version="1.0" encoding="UTF-8" standalone="no"?>
<svg
   xmlns:dc="http://purl.org/dc/elements/1.1/"
   xmlns:cc="http://creativecommons.org/ns#"
   xmlns:rdf="http://www.w3.org/1999/02/22-rdf-syntax-ns#"
   xmlns:svg="http://www.w3.org/2000/svg"
   xmlns="http://www.w3.org/2000/svg"
   xmlns:sodipodi="http://sodipodi.sourceforge.net/DTD/sodipodi-0.dtd"
   xmlns:inkscape="http://www.inkscape.org/namespaces/inkscape"
   inkscape:version="1.0 (1.0+r73+1)"
   sodipodi:docname="icon_arrow_prev.svg"
   id="svg4"
   version="1.1"
   fill="none"
   viewBox="0 0 24.376701 32.497459"
   height="32.497459"
   width="24.376701">
  <metadata
     id="metadata10">
    <rdf:RDF>
      <cc:Work
         rdf:about="">
        <dc:format>image/svg+xml</dc:format>
        <dc:type
           rdf:resource="http://purl.org/dc/dcmitype/StillImage" />
        <dc:title></dc:title>
      </cc:Work>
    </rdf:RDF>
  </metadata>
  <defs
     id="defs8" />
  <sodipodi:namedview
     inkscape:current-layer="svg4"
     inkscape:window-maximized="1"
     inkscape:window-y="24"
     inkscape:window-x="47"
     inkscape:cy="32.493406"
     inkscape:cx="26.0034"
     inkscape:zoom="9.2948718"
     fit-margin-bottom="0"
     fit-margin-right="0"
     fit-margin-left="0"
     fit-margin-top="0"
     showgrid="false"
     id="namedview6"
     inkscape:window-height="876"
     inkscape:window-width="1553"
     inkscape:pageshadow="2"
     inkscape:pageopacity="0"
     guidetolerance="10"
     gridtolerance="10"
     objecttolerance="10"
     borderopacity="1"
     bordercolor="#666666"
     pagecolor="#ffffff" />
  <path
     style="stroke-width:0.5"
     id="path2"
     fill-opacity="0.25"
     fill="#ffffff"
     d="m 0.70204999,14.910753 c -0.2165,0.1491 -0.39354998,0.34855 -0.51584999,0.58125 C 0.0639,15.724703 0,15.983653 0,16.246503 c 0,0.2629 0.0639,0.52185 0.1862,0.7545 0.12230001,0.2327 0.29934999,0.4322 0.51584999,0.58125 L 21.82705,32.207254 c 0.2437,0.169299 0.52905,0.2686 0.8252,0.287048 0.2961,0.0185 0.5916,-0.04455 0.85445,-0.18225 0.2628,-0.137699 0.48285,-0.34475 0.63625,-0.598699 0.15335,-0.254 0.2342,-0.545151 0.23375,-0.841849 V 1.6215229 C 24.3755,1.3255179 24.2936,1.0354479 24.13985,0.78250295 23.9861,0.52956293 23.7663,0.32331794 23.5041,0.18594794 c -0.2622,-0.13737 -0.5569,-0.20066 -0.8524,-0.18307 -0.29545,0.017585 -0.58055,0.11539 -0.82465,0.28289501 z" />
</svg>
