<?xml version="1.0" encoding="UTF-8" standalone="no"?>
<svg
   xmlns:dc="http://purl.org/dc/elements/1.1/"
   xmlns:cc="http://creativecommons.org/ns#"
   xmlns:rdf="http://www.w3.org/1999/02/22-rdf-syntax-ns#"
   xmlns:svg="http://www.w3.org/2000/svg"
   xmlns="http://www.w3.org/2000/svg"
   xmlns:sodipodi="http://sodipodi.sourceforge.net/DTD/sodipodi-0.dtd"
   xmlns:inkscape="http://www.inkscape.org/namespaces/inkscape"
   inkscape:version="1.0 (1.0+r73+1)"
   sodipodi:docname="icon_arrow_next.svg"
   id="svg4"
   version="1.1"
   fill="none"
   viewBox="0 0 24.376701 32.497467"
   height="32.497467"
   width="24.376701">
  <metadata
     id="metadata10">
    <rdf:RDF>
      <cc:Work
         rdf:about="">
        <dc:format>image/svg+xml</dc:format>
        <dc:type
           rdf:resource="http://purl.org/dc/dcmitype/StillImage" />
        <dc:title></dc:title>
      </cc:Work>
    </rdf:RDF>
  </metadata>
  <defs
     id="defs8" />
  <sodipodi:namedview
     inkscape:current-layer="svg4"
     inkscape:window-maximized="1"
     inkscape:window-y="24"
     inkscape:window-x="47"
     inkscape:cy="32.501502"
     inkscape:cx="22.750004"
     inkscape:zoom="9.2948718"
     showgrid="false"
     id="namedview6"
     inkscape:window-height="876"
     inkscape:window-width="1553"
     inkscape:pageshadow="2"
     inkscape:pageopacity="0"
     guidetolerance="10"
     gridtolerance="10"
     objecttolerance="10"
     borderopacity="1"
     bordercolor="#666666"
     pagecolor="#ffffff" />
  <path
     style="stroke-width:0.5"
     id="path2"
     fill-opacity="0.25"
     fill="#ffffff"
     d="m 23.674652,17.586701 c 0.2165,-0.1491 0.39355,-0.34855 0.51585,-0.58125 0.1223,-0.2327 0.1862,-0.49165 0.1862,-0.7545 0,-0.2629 -0.0639,-0.52185 -0.1862,-0.7545 -0.1223,-0.2327 -0.29935,-0.4322 -0.51585,-0.58125 L 2.5496519,0.29018106 c -0.2437,-0.169285 -0.52905,-0.268555 -0.8252,-0.28703 -0.2961,-0.018475 -0.5916,0.04455 -0.85445003,0.18224 -0.2628,0.137685 -0.48285,0.34476 -0.63625,0.59873 C 0.08040187,1.0380911 -4.4813173e-4,1.3292361 1.8682678e-6,1.6259311 V 30.875951 c 0.00120000173,0.296 0.083100001732,0.58605 0.2368500017322,0.839 0.15375,0.25295 0.37355,0.4592 0.63575,0.59655 0.26220003,0.13735 0.55690003,0.20065 0.85240003,0.1831 0.29545,-0.0176 0.58055,-0.1154 0.82465,-0.2829 z" />
</svg>
