<?xml version="1.0" encoding="UTF-8" standalone="no"?>
<svg
   xmlns:dc="http://purl.org/dc/elements/1.1/"
   xmlns:cc="http://creativecommons.org/ns#"
   xmlns:rdf="http://www.w3.org/1999/02/22-rdf-syntax-ns#"
   xmlns:svg="http://www.w3.org/2000/svg"
   xmlns="http://www.w3.org/2000/svg"
   xmlns:sodipodi="http://sodipodi.sourceforge.net/DTD/sodipodi-0.dtd"
   xmlns:inkscape="http://www.inkscape.org/namespaces/inkscape"
   width="175"
   height="175"
   viewBox="0 0 175 175"
   version="1.1"
   id="svg6"
   sodipodi:docname="icon_restart.svg"
   style="fill:none"
   inkscape:version="0.92.3 (2405546, 2018-03-11)">
  <metadata
     id="metadata12">
    <rdf:RDF>
      <cc:Work
         rdf:about="">
        <dc:format>image/svg+xml</dc:format>
        <dc:type
           rdf:resource="http://purl.org/dc/dcmitype/StillImage" />
        <dc:title></dc:title>
      </cc:Work>
    </rdf:RDF>
  </metadata>
  <defs
     id="defs10" />
  <sodipodi:namedview
     pagecolor="#ffffff"
     bordercolor="#666666"
     borderopacity="1"
     objecttolerance="10"
     gridtolerance="10"
     guidetolerance="10"
     inkscape:pageopacity="0"
     inkscape:pageshadow="2"
     inkscape:window-width="1213"
     inkscape:window-height="745"
     id="namedview8"
     showgrid="false"
     inkscape:zoom="0.67428571"
     inkscape:cx="87.5"
     inkscape:cy="-31.144068"
     inkscape:window-x="67"
     inkscape:window-y="27"
     inkscape:window-maximized="1"
     inkscape:current-layer="svg6"
     fit-margin-top="0"
     fit-margin-left="0"
     fit-margin-right="0"
     fit-margin-bottom="0" />
  <circle
     cx="87.5"
     cy="87.5"
     r="87.5"
     id="circle2"
     style="fill:#3b915d;stroke-width:0.5" />
  <path
     d="m 27.4735,74.516 h 7.872 c 1.088,0 2.13335,0.1065 3.136,0.32 1.024,0.192 1.93065,0.5335 2.72,1.024 0.78935,0.4905 1.41865,1.152 1.888,1.984 0.46935,0.832 0.704,1.888 0.704,3.168 0,1.6425 -0.45865,3.0185 -1.376,4.128 -0.896,1.1095 -2.18665,1.7815 -3.872,2.016 l 6.016,10.016 h -4.864 l -5.248,-9.6 h -2.944 v 9.6 h -4.032 z m 7.168,9.6 c 0.576,0 1.152,-0.0215 1.728,-0.064 0.576,-0.064 1.09865,-0.192 1.568,-0.384 0.49065,-0.2135 0.88535,-0.5225 1.184,-0.928 0.29865,-0.4265 0.448,-1.0135 0.448,-1.76 0,-0.6615 -0.13865,-1.1945 -0.416,-1.6 -0.27735,-0.4055 -0.64,-0.704 -1.088,-0.896 -0.448,-0.2135 -0.94935,-0.352 -1.504,-0.416 -0.53335,-0.064 -1.056,-0.096 -1.568,-0.096 h -3.488 v 6.144 z m 12.98825,-9.6 H 62.638 v 3.648 H 51.66175 v 5.568 H 62.062 V 87.38 H 51.66175 v 6.144 H 63.214 v 3.648 H 47.62975 Z M 78.2965,79.38 c -0.427,-0.6185 -1.003,-1.0665 -1.728,-1.344 -0.704,-0.2985 -1.451,-0.448 -2.24,-0.448 -0.4695,0 -0.928,0.0535 -1.376,0.16 -0.427,0.1065 -0.8215,0.2775 -1.184,0.512 -0.3415,0.2345 -0.619,0.544 -0.832,0.928 -0.2135,0.3625 -0.32,0.8 -0.32,1.312 0,0.768 0.2665,1.3545 0.8,1.76 0.533,0.4055 1.1945,0.7575 1.984,1.056 0.789,0.2985 1.653,0.5865 2.592,0.864 0.9385,0.2775 1.8025,0.6615 2.592,1.152 0.789,0.4905 1.4505,1.1415 1.984,1.952 0.533,0.8105 0.8,1.888 0.8,3.232 0,1.216 -0.224,2.2825 -0.672,3.2 -0.448,0.896 -1.056,1.6425 -1.824,2.24 -0.747,0.5975 -1.6215,1.0455 -2.624,1.344 -1.003,0.2985 -2.059,0.448 -3.168,0.448 -1.408,0 -2.763,-0.2345 -4.064,-0.704 -1.3015,-0.4695 -2.4215,-1.2585 -3.36,-2.368 l 3.04,-2.944 c 0.4905,0.7465 1.1305,1.3335 1.92,1.76 0.8105,0.4055 1.664,0.608 2.56,0.608 0.469,0 0.9385,-0.064 1.408,-0.192 0.469,-0.128 0.896,-0.32 1.28,-0.576 0.384,-0.256 0.693,-0.576 0.928,-0.96 0.2345,-0.4055 0.352,-0.864 0.352,-1.376 0,-0.832 -0.267,-1.472 -0.8,-1.92 -0.5335,-0.448 -1.195,-0.8215 -1.984,-1.12 -0.7895,-0.32 -1.6535,-0.6185 -2.592,-0.896 -0.939,-0.2775 -1.803,-0.6505 -2.592,-1.12 -0.7895,-0.4905 -1.451,-1.1305 -1.984,-1.92 -0.5335,-0.8105 -0.8,-1.888 -0.8,-3.232 0,-1.1735 0.2345,-2.1865 0.704,-3.04 0.4905,-0.8535 1.12,-1.5575 1.888,-2.112 0.789,-0.576 1.685,-1.0025 2.688,-1.28 1.0025,-0.2775 2.0265,-0.416 3.072,-0.416 1.1945,0 2.3465,0.1815 3.456,0.544 1.1305,0.3625 2.144,0.96 3.04,1.792 z m 11.911,-1.216 h -6.944 v -3.648 h 17.92 v 3.648 h -6.944 v 19.008 h -4.032 z m 18.1255,-3.648 h 3.488 l 9.76,22.656 h -4.608 l -2.112,-5.184 h -9.824 l -2.048,5.184 h -4.5125 z m 5.12,14.016 -3.488,-9.216 -3.552,9.216 z m 10.6455,-14.016 h 7.872 c 1.088,0 2.1335,0.1065 3.136,0.32 1.024,0.192 1.9305,0.5335 2.72,1.024 0.7895,0.4905 1.4185,1.152 1.888,1.984 0.4695,0.832 0.704,1.888 0.704,3.168 0,1.6425 -0.4585,3.0185 -1.376,4.128 -0.896,1.1095 -2.1865,1.7815 -3.872,2.016 l 6.016,10.016 h -4.864 l -5.248,-9.6 h -2.944 v 9.6 h -4.032 z m 7.168,9.6 c 0.576,0 1.152,-0.0215 1.728,-0.064 0.576,-0.064 1.0985,-0.192 1.568,-0.384 0.4905,-0.2135 0.8855,-0.5225 1.184,-0.928 0.2985,-0.4265 0.448,-1.0135 0.448,-1.76 0,-0.6615 -0.1385,-1.1945 -0.416,-1.6 -0.2775,-0.4055 -0.64,-0.704 -1.088,-0.896 -0.448,-0.2135 -0.9495,-0.352 -1.504,-0.416 -0.5335,-0.064 -1.056,-0.096 -1.568,-0.096 h -3.488 v 6.144 z m 17.066,-5.952 h -6.944 v -3.648 h 17.92 v 3.648 h -6.944 v 19.008 h -4.032 z"
     id="path4"
     inkscape:connector-curvature="0"
     style="fill:#ffffff;fill-opacity:0.8;stroke-width:0.5" />
</svg>
