<?xml version="1.0" encoding="UTF-8" standalone="no"?>
<svg
   xmlns:dc="http://purl.org/dc/elements/1.1/"
   xmlns:cc="http://creativecommons.org/ns#"
   xmlns:rdf="http://www.w3.org/1999/02/22-rdf-syntax-ns#"
   xmlns:svg="http://www.w3.org/2000/svg"
   xmlns="http://www.w3.org/2000/svg"
   xmlns:sodipodi="http://sodipodi.sourceforge.net/DTD/sodipodi-0.dtd"
   xmlns:inkscape="http://www.inkscape.org/namespaces/inkscape"
   width="175"
   height="175"
   viewBox="0 0 175 175"
   version="1.1"
   id="svg116"
   sodipodi:docname="icon_stop.svg"
   style="fill:none"
   inkscape:version="0.92.3 (2405546, 2018-03-11)">
  <metadata
     id="metadata122">
    <rdf:RDF>
      <cc:Work
         rdf:about="">
        <dc:format>image/svg+xml</dc:format>
        <dc:type
           rdf:resource="http://purl.org/dc/dcmitype/StillImage" />
        <dc:title></dc:title>
      </cc:Work>
    </rdf:RDF>
  </metadata>
  <defs
     id="defs120" />
  <sodipodi:namedview
     pagecolor="#ffffff"
     bordercolor="#666666"
     borderopacity="1"
     objecttolerance="10"
     gridtolerance="10"
     guidetolerance="10"
     inkscape:pageopacity="0"
     inkscape:pageshadow="2"
     inkscape:window-width="1213"
     inkscape:window-height="745"
     id="namedview118"
     showgrid="false"
     fit-margin-top="0"
     fit-margin-left="0"
     fit-margin-right="0"
     fit-margin-bottom="0"
     inkscape:zoom="1.5657143"
     inkscape:cx="87.5"
     inkscape:cy="87.5"
     inkscape:window-x="67"
     inkscape:window-y="27"
     inkscape:window-maximized="1"
     inkscape:current-layer="svg116" />
  <circle
     cx="87.5"
     cy="87.5"
     r="87.5"
     id="circle112"
     style="fill:#a4332d;stroke-width:0.5" />
  <path
     d="m 45.11875,74.81911 c -0.64,-0.928 -1.504,-1.6 -2.592,-2.016 -1.056,-0.448 -2.176,-0.672 -3.36,-0.672 -0.704,0 -1.392,0.08 -2.064,0.24 -0.64,0.16 -1.232,0.416 -1.776,0.768 -0.512,0.352 -0.928,0.816 -1.248,1.392 -0.32,0.544 -0.48,1.2 -0.48,1.968 0,1.152 0.4,2.032 1.2,2.64 0.8,0.608 1.792,1.136 2.976,1.584 1.184,0.448 2.48,0.88 3.888,1.296 1.408,0.416 2.704,0.992 3.888,1.728 1.184,0.736 2.176,1.712 2.976,2.928 0.8,1.216 1.2,2.832 1.2,4.848 0,1.824 -0.336,3.424 -1.008,4.8 -0.672,1.344 -1.584,2.464 -2.736,3.36 -1.12,0.896 -2.432,1.568 -3.936,2.016 -1.504,0.448 -3.088,0.672 -4.752,0.672 -2.112,0 -4.144,-0.352 -6.096,-1.056 -1.952,-0.704 -3.632,-1.888 -5.04,-3.552 l 4.56,-4.416 c 0.736,1.12 1.696,2 2.88,2.64 1.216,0.608 2.496,0.912 3.84,0.912 0.704,0 1.408,-0.096 2.112,-0.288 0.704,-0.192 1.344,-0.48 1.92,-0.864 0.576,-0.384 1.04,-0.864 1.392,-1.44 0.352,-0.608 0.528,-1.296 0.528,-2.064 0,-1.248 -0.4,-2.208 -1.2,-2.88 -0.8,-0.672 -1.792,-1.232 -2.976,-1.68 -1.184,-0.48 -2.48,-0.928 -3.888,-1.344 -1.408,-0.416 -2.704,-0.976 -3.888,-1.68 -1.184,-0.736 -2.176,-1.696 -2.976,-2.88 -0.8,-1.216 -1.2,-2.832 -1.2,-4.848 0,-1.76 0.352,-3.28 1.056,-4.56 0.736,-1.28 1.68,-2.336 2.832,-3.168 1.184,-0.864 2.528,-1.504 4.032,-1.92 1.504,-0.416 3.04,-0.624 4.608,-0.624 1.792,0 3.52,0.272 5.184,0.816 1.696,0.544 3.216,1.44 4.56,2.688 z m 17.8665,-1.824 h -10.416 v -5.472 h 26.88 v 5.472 h -10.416 v 28.512 h -6.048 z m 18.7785,11.664 c 0,-2.72 0.448,-5.184 1.344,-7.392 0.896,-2.24 2.128,-4.144 3.696,-5.712 1.6,-1.568 3.488,-2.768 5.664,-3.6 2.208,-0.864 4.624,-1.296 7.248,-1.296 2.656,-0.032 5.088,0.368 7.296,1.2 2.208,0.8 4.112,1.984 5.712,3.552 1.6,1.568 2.848,3.456 3.744,5.664 0.896,2.208 1.344,4.672 1.344,7.392 0,2.656 -0.448,5.072 -1.344,7.248 -0.896,2.176 -2.144,4.048 -3.744,5.616 -1.6,1.568 -3.504,2.8 -5.712,3.696 -2.208,0.864 -4.64,1.312 -7.296,1.344 -2.624,0 -5.04,-0.416 -7.248,-1.248 -2.176,-0.864 -4.064,-2.064 -5.664,-3.6 -1.568,-1.568 -2.8,-3.44 -3.696,-5.616 -0.896,-2.176 -1.344,-4.592 -1.344,-7.248 z m 6.336,-0.384 c 0,1.824 0.272,3.504 0.816,5.04 0.576,1.536 1.376,2.864 2.4,3.984 1.024,1.12 2.24,2 3.648,2.64 1.44,0.64 3.04,0.96 4.8,0.96 1.76,0 3.36,-0.32 4.8,-0.96 1.44,-0.64 2.672,-1.52 3.696,-2.64 1.024,-1.12 1.808,-2.448 2.352,-3.984 0.576,-1.536 0.864,-3.216 0.864,-5.04 0,-1.696 -0.288,-3.28 -0.864,-4.752 -0.544,-1.472 -1.328,-2.752 -2.352,-3.84 -1.024,-1.12 -2.256,-1.984 -3.696,-2.592 -1.44,-0.64 -3.04,-0.96 -4.8,-0.96 -1.76,0 -3.36,0.32 -4.8,0.96 -1.408,0.608 -2.624,1.472 -3.648,2.592 -1.024,1.088 -1.824,2.368 -2.4,3.84 -0.544,1.472 -0.816,3.056 -0.816,4.752 z m 35.4725,-16.752 h 11.424 c 1.632,0 3.2,0.16 4.704,0.48 1.536,0.32 2.88,0.864 4.032,1.632 1.152,0.736 2.064,1.744 2.736,3.024 0.704,1.248 1.056,2.816 1.056,4.704 0,2.144 -0.368,3.872 -1.104,5.184 -0.736,1.312 -1.728,2.336 -2.976,3.072 -1.248,0.704 -2.704,1.184 -4.368,1.44 -1.632,0.256 -3.344,0.384 -5.136,0.384 h -4.32 v 14.064 h -6.048 z m 9.696,14.736 c 0.864,0 1.76,-0.032 2.688,-0.096 0.928,-0.064 1.776,-0.256 2.544,-0.576 0.8,-0.32 1.44,-0.8 1.92,-1.44 0.512,-0.64 0.768,-1.536 0.768,-2.688 0,-1.056 -0.224,-1.888 -0.672,-2.496 -0.448,-0.64 -1.024,-1.12 -1.728,-1.44 -0.704,-0.352 -1.488,-0.576 -2.352,-0.672 -0.864,-0.096 -1.696,-0.144 -2.496,-0.144 h -4.32 v 9.552 z"
     id="path114"
     inkscape:connector-curvature="0"
     style="fill:#ffffff;fill-opacity:0.8;stroke-width:0.5" />
</svg>
